<?xml version="1.0" encoding="UTF-8"?><svg xmlns="http://www.w3.org/2000/svg" viewBox="0 0 247.01 30.28"><defs><style>.d{fill-rule:evenodd;}.d,.e{fill:#f3f1ee;}.f{fill:#fff;}.g{fill:#3253ff;}.h{fill:#2333d8;}</style></defs><g id="a"/><g id="b"><g id="c"><g><path class="g" d="M193.66,3.82c-.08-.1-.34-.17-.68-.22-.04-.45-.19-.82-.45-1.09-.42-.42-.98-.43-1.02-.43h-.02c-.47,0-.85,.15-1.12,.44-.3,.33-.4,.76-.42,1.06-.43,.04-.73,.1-.77,.17-.15,.26-.29,3.47-.29,3.47,0,0,4.96,.6,4.92,.16-.04-.44,.22-2.12-.15-3.55Zm-3.18-.28c.03-.21,.1-.47,.27-.66,.17-.18,.43-.25,.74-.27,0,0,.38,0,.66,.28,.16,.16,.25,.38,.29,.66-.61-.04-1.35-.04-1.97-.01Z"/><path class="g" d="M23.38,23.78c0,1.97-.72,3.55-2.15,4.74-1.43,1.17-3.31,1.76-5.64,1.76-2.11,0-3.93-.5-5.45-1.5-1.49-1.01-2.54-2.4-3.13-4.17l1.98-1.16c.42,1.43,1.19,2.56,2.31,3.38,1.12,.79,2.56,1.19,4.32,1.19s3.05-.37,3.99-1.12c.97-.78,1.46-1.79,1.46-3.05s-.44-2.14-1.32-2.76c-.88-.61-2.34-1.25-4.36-1.92-2.4-.79-3.98-1.43-4.75-1.92-.94-.57-1.64-1.28-2.07-2.12-.02-.02-.03-.05-.03-.07-.25-.48-.41-1-.48-1.57,.48-.65,1.33-1.43,2.44-2.24-.13,.39-.19,.82-.19,1.29,0,.88,.24,1.6,.7,2.14l.02,.02c.14,.16,.3,.3,.47,.43,.79,.57,2.1,1.16,3.92,1.76,.84,.28,1.43,.49,1.79,.63,.37,.11,.9,.3,1.58,.59,.7,.27,1.22,.51,1.55,.73,.33,.2,.73,.49,1.19,.86,.48,.36,.82,.72,1.02,1.1,.22,.35,.41,.79,.56,1.32,.18,.51,.27,1.06,.27,1.66Z"/><path class="g" d="M19.11,7.28c-1.01,.14-2.38,.58-3.89,1.26-.04-.01-.09-.01-.13-.01-1.43,0-2.58,.36-3.46,1.06-.55,.45-.93,1-1.13,1.66-1.11,.81-1.96,1.59-2.44,2.24-.04-.27-.06-.55-.06-.85,0-1.15,.24-2.16,.72-3.03,.32-.61,.77-1.14,1.33-1.61,1.36-1.15,3.04-1.72,5.04-1.72,.33,0,.65,.02,.96,.05,1.13,.11,2.14,.42,3.06,.95Z"/><path class="g" d="M42.03,6.68h2.31V29.88h-2.31v-10.84h-12.54v10.84h-2.31V6.68h2.31v10.18h12.54V6.68Z"/><path class="g" d="M91,6.68c2.07,0,3.79,.7,5.18,2.09,1.39,1.39,2.08,3.13,2.08,5.2s-.69,3.81-2.08,5.2c-1.39,1.39-3.11,2.09-5.18,2.09h-5.94v8.62h-2.31V6.68h8.25Zm0,12.4c1.43,0,2.61-.48,3.53-1.43,.95-.97,1.42-2.2,1.42-3.68s-.47-2.7-1.42-3.65c-.92-.97-2.1-1.46-3.53-1.46h-5.94v10.21h5.94Z"/><path class="g" d="M102.22,20.7v-2.12h11.88v2.12h-11.88Z"/><path class="f" d="M134.74,29.88l-2.14-5.7h-10.95l-2.14,5.7h-2.44l8.88-23.2h2.38l8.88,23.2h-2.44Zm-12.27-7.89h9.31l-4.65-12.43-4.65,12.43Z"/><path class="f" d="M152.95,17.85c1.12,.49,2.01,1.23,2.67,2.22,.68,.97,1.02,2.09,1.02,3.35,0,1.79-.63,3.31-1.88,4.57-1.25,1.26-2.77,1.89-4.55,1.89h-10.06V6.68h9.31c1.72,0,3.18,.62,4.39,1.86,1.21,1.22,1.82,2.67,1.82,4.38,0,2.17-.9,3.81-2.71,4.94Zm-3.5-8.98h-6.99v8.09h6.99c1.08,0,1.99-.39,2.74-1.16,.77-.8,1.15-1.76,1.15-2.88s-.38-2.06-1.15-2.85c-.75-.8-1.66-1.19-2.74-1.19Zm.76,18.83c1.14,0,2.11-.41,2.9-1.23,.81-.84,1.22-1.86,1.22-3.05s-.41-2.18-1.22-3.02c-.79-.84-1.76-1.26-2.9-1.26h-7.75v8.55h7.75Z"/><path class="f" d="M174.8,29.88l-5.41-9.28h-6.47v9.28h-2.31V6.68h9.24c1.91,0,3.54,.69,4.88,2.06,1.36,1.35,2.04,2.98,2.04,4.91,0,1.57-.47,2.97-1.42,4.21-.92,1.22-2.11,2.03-3.56,2.45l5.64,9.58h-2.64Zm-11.88-21.01v9.55h6.93c1.28,0,2.37-.46,3.27-1.39,.9-.95,1.35-2.08,1.35-3.38s-.45-2.45-1.35-3.38c-.9-.93-1.99-1.39-3.27-1.39h-6.93Z"/><path class="f" d="M199.85,26.8c-2.31,2.32-5.14,3.48-8.48,3.48s-6.17-1.16-8.48-3.48c-2.31-2.34-3.46-5.18-3.46-8.52s1.15-6.17,3.46-8.49c2.31-2.34,5.14-3.51,8.48-3.51s6.17,1.17,8.48,3.51c2.31,2.32,3.47,5.15,3.47,8.49s-1.16,6.18-3.47,8.52Zm-15.34-1.59c1.85,1.88,4.14,2.82,6.86,2.82s5.01-.94,6.86-2.82c1.85-1.9,2.77-4.21,2.77-6.93s-.92-5.02-2.77-6.89c-1.85-1.9-4.14-2.85-6.86-2.85s-5.02,.95-6.86,2.85c-1.85,1.88-2.77,4.18-2.77,6.89s.92,5.03,2.77,6.93Z"/><path class="f" d="M221.81,29.88l-2.15-5.7h-10.96l-2.15,5.7h-2.44l8.88-23.2h2.38l8.88,23.2h-2.44Zm-12.28-7.89h9.31l-4.65-12.43-4.65,12.43Z"/><path class="f" d="M236.12,6.68c3.15,0,5.74,1.13,7.79,3.38,2.07,2.23,3.1,4.97,3.1,8.22s-1.03,6-3.1,8.25c-2.05,2.23-4.64,3.35-7.79,3.35h-8.91V6.68h8.91Zm0,21.01c2.53,0,4.6-.91,6.2-2.72,1.63-1.81,2.44-4.04,2.44-6.7s-.81-4.88-2.44-6.7c-1.61-1.81-3.67-2.72-6.2-2.72h-6.6V27.69h6.6Z"/><path class="d" d="M79.39,16.97c-.38-3.56-2.33-6.66-5.15-8.59-.78-.55-1.64-.99-2.55-1.33-1.31-.5-2.73-.77-4.22-.77h-7.12c-1.49,0-2.91,.27-4.22,.76-.91,.34-1.77,.79-2.55,1.33-2.82,1.93-4.77,5.03-5.15,8.6-.06,.43-.08,.87-.08,1.31,0,.34,0,.67,.04,1,.31,3.76,2.35,7.02,5.33,9,.79,.53,1.66,.97,2.58,1.3,1.26,.45,2.63,.7,4.05,.7h7.12c1.42,0,2.79-.25,4.05-.7,.92-.34,1.78-.77,2.58-1.3,2.98-1.98,5.02-5.24,5.33-9,.03-.33,.04-.66,.04-1,0-.44-.02-.88-.08-1.31Zm-6.32,9.59c-.79,.54-1.67,.97-2.6,1.26-.95,.3-1.95,.46-3,.46h-7.12c-1.05,0-2.05-.16-3-.46-.93-.29-1.81-.72-2.6-1.26-2.39-1.61-4.05-4.24-4.35-7.28-.03-.33-.05-.66-.05-1,0-.44,.03-.88,.09-1.31,.39-3.03,2.14-5.64,4.63-7.18,.83-.52,1.75-.92,2.72-1.17,.82-.22,1.68-.34,2.56-.34h7.12c.88,0,1.74,.12,2.56,.34,.97,.25,1.89,.65,2.72,1.17,2.49,1.54,4.24,4.15,4.63,7.18,.06,.43,.09,.87,.09,1.31,0,.34-.02,.67-.05,1-.3,3.04-1.96,5.67-4.35,7.28Z"/><g><path class="g" d="M236.82,24.3c-.72,.08-1.15-.35-1.52-.88-.15-.21-.28-.43-.41-.65-.27-.46-.68-.64-1.19-.7-.51-.05-1.01-.14-1.52-.24-.43-.08-.68-.39-.88-.76-.44-.81-.26-1.86,.42-2.43,.35-.29,.78-.41,1.22-.48,.7-.11,1.36-.29,1.99-.62,.41-.21,.84-.37,1.27-.54,.57-.23,1.64,.27,1.83,.93,.13,.46,.23,.94,.25,1.41,.03,.82,.13,1.63,.33,2.42,.06,.23,.09,.46,.11,.7,.01,.13-.01,.28-.06,.41-.08,.2-.19,.4-.28,.59-.26,.54-.72,.76-1.28,.83-.1,.01-.19,0-.29,0Z"/><path class="g" d="M242.45,19.52c-.05,.97-.41,1.77-1.31,2.23-.78,.39-1.48,0-1.62-.86-.15-.96,.42-2.07,1.3-2.49,.78-.38,1.55,.09,1.62,1,0,.04,0,.09,0,.13Z"/><path class="g" d="M235.89,14.6c.05-.97,.42-1.76,1.31-2.21,.77-.39,1.49,.02,1.62,.88,.13,.9-.41,1.99-1.2,2.42-.85,.46-1.66,.02-1.72-.95,0-.05,0-.1,0-.14Z"/><path class="g" d="M233.82,13.64c.57-.01,.99,.37,1.09,.98,.15,.97-.39,2.05-1.26,2.5-.76,.39-1.54-.02-1.63-.86-.11-1.02,.28-1.82,1.12-2.39,.21-.14,.45-.23,.68-.22Z"/><path class="g" d="M239.65,17.74c-.53,0-.93-.35-1.05-.94-.21-.98,.4-2.17,1.32-2.59,.7-.32,1.35,0,1.54,.74,.25,1.01-.39,2.28-1.36,2.68-.14,.06-.3,.07-.45,.11Z"/></g><path class="g" d="M6.15,9.66s-.58-1.62-1.17-1.68c-.36-.03-.82,2.33-.94,2.92s-2.24,.18-2.24,.18c0,0-1.11-1.45-1.11-3,0-2.14,1.11-4.09,2.28-5.77C4.08,.74,7.34-.52,11.91,.22c2.26,.37,4.31,1.57,5.71,3.38,.22,.28,.42,.56,.61,.82,.91,1.25-11.02,5.78-11.02,5.78l-1.05-.54Z"/><path class="h" d="M8.47,14.91c-.47-.04-.72-.18-.78-.22h-.01c-.11-.3,.04-.71,.38-1.2,.06,.51,.2,.98,.41,1.42Z"/><path class="h" d="M20.55,8.31c-.24-.22-.5-.42-.77-.61-.22-.16-.44-.3-.67-.42,.75-.1,1.31-.05,1.57,.21,.02,.39-.02,.59-.13,.82Z"/><path class="g" d="M.69,8.09c0-2.14,.9-4.26,2.28-5.77S7.34-.52,11.91,.22"/><path class="e" d="M17.08,11.4c-2.4,1.67-4.65,2.61-6.23,3.07,2.02-.73,4.18-1.71,6.23-3.07Z"/><path class="e" d="M20.77,7.62s-.02-.09-.04-.11c-.05-.08-1.41-2.98-2.63-3.97-.18-.15-.44-.24-.77-.28-1.22-.16-3.33,.39-5.41,1.42-2.76,1.36-5.13,3.4-5.9,4.64-.2,.31-.3,.57-.27,.76,.45,3.09,1.72,4.33,1.91,4.57,0,.01,.02,.02,.02,.03-.11-.29,.04-.7,.38-1.19,.48-.65,1.33-1.43,2.44-2.24,.82-.59,1.77-1.2,2.82-1.77,.65-.35,1.28-.67,1.9-.94,1.51-.68,2.88-1.12,3.89-1.26,.77-.1,1.47,.03,1.57,.23,.02,.13-.02,.58-.13,.8,.03,.03,.06,.05,.09,.08l.05,.05c.13-.29,.11-.67,.08-.82Z"/><path class="e" d="M8.57,15.13c-.43-.02-.74-.15-.86-.38-.01-.02-.11-.2-.04-.1,.06,.04,.33,.22,.8,.25,.02,.05,.04,.1,.07,.15,0,.02,0,.05,.03,.07Z"/><polygon class="g" points="65.06 8.28 64.71 17.83 65.06 28.28 62.76 28.28 63.06 17.86 62.76 8.28 65.06 8.28"/><path class="g" d="M48.39,19.28h-.04v-1c0,.34,0,.67,.04,1Z"/><path class="g" d="M48.43,16.97c-.06,.43-.08,.87-.08,1.31v-1.31h.08Z"/><path class="g" d="M77.38,16.97c.06,.43,.09,.87,.09,1.31,0,.34-.02,.67-.05,1l-13.49-.35-13.53,.35c-.03-.33-.05-.66-.05-1,0-.44,.03-.88,.09-1.31h26.94Z"/><path class="g" d="M79.47,16.97v1.31c0-.44-.02-.88-.08-1.31h.08Z"/><path class="g" d="M79.43,19.28c.03-.33,.04-.66,.04-1v1h-.04Z"/><g><path class="g" d="M63.93,17.91s-2.16,1.23-2.19,8.63c-1.31-1.69-1.62-2.62-1.62-2.96-.56,.04-.93,0-1.5,.42,0,0,.47-4.1,2.06-6.84l3.26,.74Z"/><path class="g" d="M64.27,17.98s1.79,2.37,2.23,8.88c1.37-1.64,1.74-2.79,1.76-3.13,.59-.16,.9-.12,2.1,.27,0,0-.61-3.4-2.43-6.7l-3.66,.68Z"/></g><g><g><path class="h" d="M63.28,17.83c-.22,.68-1.9,2.6-1.9,2.6-.56,.49-2.64,1.24-2.86,1.09l-.02-.02s-.03-.03-.05-.04c0,0,0,0,0,0-.15-.18-.07-.52,1.85-1.51,1.89-.99,2.74-1.83,2.94-2.05,.03-.03,.04-.05,.04-.05Z"/><path class="g" d="M63.35,17.65s-.04,.09-.12,.24c-.2,.21-1.05,1.06-2.94,2.04-1.92,1-2.01,1.34-1.85,1.52-.84-.76-1.68-2.95-1.66-3.94,.1-.24,.31-.44,.59-.61h.01c.46-.28,1.11-.48,1.73-.61,.02,0,.04-.01,.06-.01,.99-.21,1.9-.27,1.9-.27l1.65,1.19,.63,.45Z"/></g><g><path class="h" d="M64.71,17.86c.2,.69,1.81,2.66,1.81,2.66,.55,.51,2.6,1.34,2.82,1.19l.03-.02s.03-.03,.05-.04c0,0,0,0,0,0,.16-.17,.08-.51-1.8-1.58-1.85-1.06-2.68-1.93-2.87-2.15-.02-.03-.04-.05-.04-.05Z"/><path class="g" d="M69.42,21.64c.16-.17,.08-.51-1.8-1.57-1.85-1.06-2.67-1.93-2.87-2.16-.07-.15-.1-.23-.1-.23l.84-.56,1.49-1s.63,.07,1.39,.22c.12,.03,.23,.06,.35,.08h0c.42,.1,.86,.23,1.25,.4,.12,.09,.2,.16,.2,.16,0,0,.01,0,.04,.02,.06,.03,.16,.07,.27,.07h.01c.35,.19,.61,.43,.71,.7-.02,.99-.93,3.14-1.79,3.87Z"/></g></g><path class="g" d="M70.88,16.29c-.07-.01-.34-.03-.66-.03-.41-.02-.9-.01-1.17,.08,0,0,0,.01-.02,.01-.03,0-.14,.03-.3,.07h0c-.1,.02-.22,.04-.35,.07-.35,.08-.79,.17-1.25,.27-.59,.13-1.2,.26-1.63,.36-.24,.05-.42,.09-.51,.12-.52,.13-.59-.53-.5-.9,0,0,.79-2.85,2.61-3.59,1.81-.75,1.98-.52,2.61,.36,.54,.78,1.11,2.32,1.18,3.18Z"/><path class="g" d="M62.72,17.2s-.09,0-.15-.02c-.38-.11-2.37-.62-3.4-.87-.02-.01-.04-.01-.06-.02-.3-.07-.5-.13-.55-.14h-.01s0-.01,0-.01c-.21-.08-.56-.12-.9-.13-.43-.02-.85,0-.93,.01,.1-.85,.73-2.38,1.3-3.13,.66-.87,.83-1.08,2.62-.28,1.79,.81,2.48,3.69,2.48,3.69,.06,.33,0,.89-.39,.9Z"/><circle class="e" cx="2.79" cy="12.85" r="2.79"/><path class="h" d="M70.88,16.29c.01,.13,.01,.25-.01,.34-.05,.34-.22,.44-.37,.44h-.01c-.11,0-.21-.04-.27-.07-.03-.01-.04-.02-.04-.02,0,0-.08-.07-.2-.16-.39-.17-.83-.3-1.25-.4,.16-.04,.27-.06,.3-.07,.01,0,.01-.01,.02-.01,.27-.09,.76-.1,1.17-.08,.32,0,.59,.02,.66,.03Z"/><path class="h" d="M59.11,16.29c-.62,.13-1.27,.33-1.73,.61h-.01c-.16-.02-.3-.05-.4-.1-.05-.02-.09-.04-.11-.07-.03-.03-.05-.06-.07-.11t-.01-.02c-.03-.06-.06-.14-.07-.24-.02-.09-.01-.21,0-.34,.08-.01,.5-.03,.93-.01,.34,.01,.69,.05,.9,.13t0,.01h.01s.25,.07,.55,.14Z"/><path class="h" d="M62.88,15.89c.13-.17,.71-.37,.92-.02,.42-.3,.6-.3,1-.08s.41,3.28-.24,3.38c-.52,.02-.67-.05-.71-.17-.16,.26-.66,.21-.83-.17-.19-.43-.39-2.59-.13-2.94Z"/><g><path class="g" d="M192.07,22.27v-7.84l2.15-1.89c.32-.28,.35-.77,.07-1.09-.28-.32-.77-.35-1.09-.07l-1.12,.99v-1.46c0-.43-.35-.77-.77-.77s-.77,.35-.77,.77v1.46l-1.12-.99c-.32-.28-.81-.25-1.09,.07s-.25,.81,.07,1.09l2.15,1.89v7.84l-2.15,1.89c-.32,.28-.35,.77-.07,1.09s.77,.35,1.09,.07l1.12-.99v1.32c0,.43,.35,.77,.77,.77s.77-.35,.77-.77v-1.32l1.12,.99c.32,.28,.81,.25,1.09-.07,.28-.32,.25-.81-.07-1.09l-2.15-1.89Z"/><path class="g" d="M195.15,19.58l-6.82-3.87-.59-2.8c-.09-.42-.5-.69-.92-.6-.42,.09-.69,.5-.6,.92l.31,1.47-1.27-.72c-.37-.21-.84-.08-1.05,.29s-.08,.84,.29,1.05l1.27,.72-1.42,.49c-.4,.14-.62,.58-.48,.98s.58,.62,.98,.48l2.71-.93,6.82,3.87,.59,2.8c.09,.42,.5,.69,.92,.6s.69-.5,.6-.92l-.31-1.47,1.15,.65c.37,.21,.84,.08,1.05-.29s.08-.84-.29-1.05l-1.15-.65,1.42-.49c.4-.14,.62-.58,.48-.98-.14-.4-.58-.62-.98-.48l-2.71,.93Z"/><path class="g" d="M188.24,20.95l6.78-3.93,2.72,.91c.41,.14,.84-.08,.98-.49,.14-.41-.08-.84-.49-.98l-1.42-.48,1.26-.73c.37-.21,.5-.69,.28-1.06s-.69-.5-1.06-.28l-1.26,.73,.29-1.47c.08-.42-.19-.83-.61-.91s-.83,.19-.91,.61l-.56,2.81-6.78,3.93-2.72-.91c-.41-.14-.84,.08-.98,.49s.08,.84,.49,.98l1.42,.48-1.14,.66c-.37,.21-.5,.69-.28,1.06s.69,.5,1.06,.28l1.14-.66-.29,1.47c-.08,.42,.19,.83,.61,.91,.42,.08,.83-.19,.91-.61l.56-2.81Z"/></g></g></g></g></svg>