<svg width="48" height="48" viewBox="0 0 48 48" fill="none" xmlns="http://www.w3.org/2000/svg">
<path d="M24 48C37.2548 48 48 37.2548 48 24C48 10.7452 37.2548 0 24 0C10.7452 0 0 10.7452 0 24C0 37.2548 10.7452 48 24 48Z" fill="white"/>
<path d="M31.3542 40.0006C36.1287 40.0006 39.9993 36.1301 39.9993 31.3555C39.9993 26.581 36.1287 22.7104 31.3542 22.7104C26.5796 22.7104 22.7091 26.581 22.7091 31.3555C22.7091 36.1301 26.5796 40.0006 31.3542 40.0006Z" fill="#97CF26"/>
<path d="M15.103 35.3785C17.3254 35.3785 19.1271 33.5769 19.1271 31.3544C19.1271 29.132 17.3254 27.3303 15.103 27.3303C12.8805 27.3303 11.0789 29.132 11.0789 31.3544C11.0789 33.5769 12.8805 35.3785 15.103 35.3785Z" fill="#A169F7"/>
<path d="M31.3568 20.6674C34.4299 20.6674 36.9212 18.1762 36.9212 15.103C36.9212 12.0299 34.4299 9.53857 31.3568 9.53857C28.2836 9.53857 25.7924 12.0299 25.7924 15.103C25.7924 18.1762 28.2836 20.6674 31.3568 20.6674Z" fill="#FF6163"/>
<path d="M15.1055 22.209C19.0293 22.209 22.2103 19.0281 22.2103 15.1043C22.2103 11.1804 19.0293 7.99951 15.1055 7.99951C11.1816 7.99951 8.00073 11.1804 8.00073 15.1043C8.00073 19.0281 11.1816 22.209 15.1055 22.209Z" fill="#00AAFF"/>
</svg>
