<svg width="25" height="22" viewBox="0 0 25 22" fill="none" xmlns="http://www.w3.org/2000/svg">
<path d="M23.2975 15.9491C23.1589 15.7177 22.7892 15.5789 22.2345 15.3012C21.6798 15.0236 18.9527 13.6818 18.4441 13.4965C17.9358 13.3115 17.5658 13.219 17.1961 13.7741C16.8264 14.3294 15.7634 15.5789 15.4398 15.9491C15.1162 16.3192 14.7926 16.3657 14.2381 16.0879C13.6834 15.8103 11.8961 15.2246 9.77736 13.3348C8.12836 11.8639 7.01513 10.0475 6.69156 9.4922C6.368 8.93687 6.65707 8.63677 6.93476 8.36018C7.18431 8.11156 7.48949 7.71214 7.76682 7.38834C8.04414 7.06454 8.13658 6.83301 8.32149 6.46307C8.50637 6.09271 8.41395 5.76891 8.27524 5.49124C8.13658 5.21357 7.02726 2.48326 6.56503 1.37259C6.11474 0.290972 5.65747 0.437494 5.31701 0.420407C4.99382 0.404174 4.62363 0.400757 4.25389 0.400757C3.88412 0.400757 3.28314 0.53959 2.77471 1.09492C2.26628 1.65026 0.833333 2.99224 0.833333 5.72234C0.833333 8.45266 2.82091 11.0903 3.09828 11.4604C3.37561 11.8308 7.00962 17.4334 12.574 19.8361C13.8974 20.4076 14.9306 20.7489 15.7362 21.0045C17.065 21.4268 18.2743 21.3672 19.2299 21.2243C20.2957 21.0651 22.5117 19.8826 22.9741 18.5869C23.4361 17.291 23.4361 16.1804 23.2975 15.9491Z" fill="white"/>
</svg>
