<svg width="40" height="41" viewBox="0 0 40 41" fill="none" xmlns="http://www.w3.org/2000/svg">
<path d="M19.9999 40.7861C31.0456 40.7861 39.9999 31.8318 39.9999 20.7861C39.9999 9.74044 31.0456 0.786133 19.9999 0.786133C8.95418 0.786133 -0.00012207 9.74044 -0.00012207 20.7861C-0.00012207 31.8318 8.95418 40.7861 19.9999 40.7861Z" fill="url(#paint0_linear_4_822)"/>
<path d="M16.3332 29.9528C15.6853 29.9528 15.7954 29.7082 15.5719 29.0913L13.6665 22.8205L28.3332 14.1195" fill="#D6DDFF"/>
<path d="M16.3332 29.9528C16.8332 29.9528 17.0541 29.7242 17.3332 29.4528L19.9999 26.8598L16.6736 24.854" fill="#99A9FF"/>
<path d="M16.6732 24.8545L24.7332 30.8093C25.653 31.3168 26.3168 31.054 26.5459 29.9554L29.8267 14.4949C30.1626 13.1482 29.3134 12.5374 28.4335 12.9368L9.16849 20.3653C7.85347 20.8928 7.86114 21.6264 8.92879 21.9533L13.8726 23.4964L25.3181 16.2756C25.8584 15.9479 26.3543 16.1241 25.9473 16.4853" fill="url(#paint1_linear_4_822)"/>
<defs>
<linearGradient id="paint0_linear_4_822" x1="15.0019" y1="2.45413" x2="5.00188" y2="25.7861" gradientUnits="userSpaceOnUse">
<stop stop-color="#37AEE2"/>
<stop offset="1" stop-color="#1E96C8"/>
</linearGradient>
<linearGradient id="paint1_linear_4_822" x1="17.4962" y1="22.0146" x2="19.6332" y2="28.9271" gradientUnits="userSpaceOnUse">
<stop stop-color="#EFF7FC"/>
<stop offset="1" stop-color="white"/>
</linearGradient>
</defs>
</svg>
