<svg width="40" height="41" viewBox="0 0 40 41" fill="none" xmlns="http://www.w3.org/2000/svg">
<path d="M19.9999 40.7861C31.0456 40.7861 39.9999 31.8318 39.9999 20.7861C39.9999 9.74044 31.0456 0.786133 19.9999 0.786133C8.95418 0.786133 -0.00012207 9.74044 -0.00012207 20.7861C-0.00012207 31.8318 8.95418 40.7861 19.9999 40.7861Z" fill="#25D366"/>
<path fill-rule="evenodd" clip-rule="evenodd" d="M20.6591 31.9133H20.6542C18.6638 31.9126 16.708 31.4132 14.971 30.4657L8.66653 32.1195L10.3537 25.9569C9.31298 24.1533 8.76535 22.1074 8.76624 20.0114C8.76885 13.4543 14.1039 8.11951 20.659 8.11951C23.8404 8.12088 26.8264 9.35939 29.0717 11.6073C31.317 13.8552 32.5529 16.8431 32.5517 20.0208C32.549 26.5764 27.2161 31.9106 20.6591 31.9133ZM15.2631 28.3127L15.624 28.527C17.1417 29.4276 18.8814 29.9041 20.6551 29.9048H20.6591C26.1072 29.9048 30.5415 25.4705 30.5436 20.0201C30.5447 17.3788 29.5175 14.8954 27.6513 13.027C25.785 11.1586 23.3032 10.1291 20.663 10.1282C15.2106 10.1282 10.7763 14.5621 10.7742 20.0121C10.7734 21.8798 11.296 23.6988 12.2855 25.2725L12.5205 25.6465L11.5219 29.2941L15.2631 28.3127ZM26.2435 22.5812C26.4508 22.6814 26.5908 22.749 26.6505 22.8488C26.7248 22.9727 26.7248 23.5676 26.4773 24.2619C26.2296 24.956 25.0424 25.5895 24.4714 25.6748C23.9595 25.7513 23.3117 25.7833 22.5998 25.557C22.1682 25.4201 21.6148 25.2373 20.9058 24.9311C18.12 23.7282 16.2374 21.0282 15.8816 20.5179C15.8567 20.4821 15.8392 20.4571 15.8295 20.4441L15.8271 20.4409C15.6698 20.2311 14.6161 18.8252 14.6161 17.3702C14.6161 16.0014 15.2885 15.2839 15.598 14.9537C15.6192 14.9311 15.6387 14.9103 15.6562 14.8912C15.9285 14.5937 16.2505 14.5193 16.4486 14.5193C16.6466 14.5193 16.845 14.5211 17.0181 14.5298C17.0395 14.5309 17.0617 14.5308 17.0847 14.5306C17.2578 14.5296 17.4737 14.5284 17.6867 15.0399C17.7686 15.2368 17.8885 15.5287 18.015 15.8366C18.2707 16.4591 18.5532 17.1468 18.6029 17.2463C18.6772 17.3951 18.7267 17.5686 18.6276 17.767C18.6128 17.7967 18.599 17.8248 18.5859 17.8516C18.5115 18.0035 18.4568 18.1152 18.3305 18.2627C18.2808 18.3206 18.2295 18.3831 18.1782 18.4456C18.076 18.5701 17.9738 18.6946 17.8848 18.7833C17.736 18.9315 17.5811 19.0922 17.7545 19.3897C17.9278 19.6872 18.5242 20.6603 19.4076 21.4482C20.3572 22.2953 21.1825 22.6532 21.6008 22.8347C21.6825 22.8701 21.7487 22.8988 21.7973 22.9231C22.0943 23.0719 22.2677 23.047 22.441 22.8488C22.6144 22.6505 23.1838 21.9811 23.3819 21.6836C23.58 21.3862 23.7782 21.4358 24.0505 21.5349C24.3229 21.6341 25.7839 22.3529 26.081 22.5017C26.139 22.5307 26.1933 22.5569 26.2435 22.5812Z" fill="white"/>
</svg>
